<svg xmlns="http://www.w3.org/2000/svg" xmlns:xlink="http://www.w3.org/1999/xlink" width="40" zoomAndPan="magnify" viewBox="0 0 30 30.000001" height="40" preserveAspectRatio="xMidYMid meet" version="1.0"><defs><clipPath id="5b5ecca4fa"><path d="M 5.003906 4.019531 L 25.328125 4.019531 L 25.328125 25 L 5.003906 25 Z M 5.003906 4.019531 " clip-rule="nonzero"/></clipPath></defs><g clip-path="url(#5b5ecca4fa)"><path fill="#000000" d="M 24.671875 15.398438 C 24.851562 15.382812 25 15.304688 25.121094 15.171875 C 25.238281 15.039062 25.296875 14.886719 25.289062 14.707031 C 25.308594 14.101562 25.320312 13.304688 25.285156 12.953125 C 25.265625 12.792969 25.191406 12.667969 25.0625 12.570312 C 24.703125 12.285156 23.867188 12.300781 23.363281 12.339844 C 23.363281 12.230469 23.363281 12.125 23.363281 12.015625 L 24.625 11.957031 C 24.804688 11.9375 24.953125 11.863281 25.070312 11.730469 C 25.191406 11.597656 25.246094 11.441406 25.242188 11.265625 C 25.261719 10.660156 25.273438 9.863281 25.234375 9.507812 C 25.21875 9.351562 25.144531 9.222656 25.015625 9.128906 C 24.664062 8.851562 23.871094 8.859375 23.363281 8.894531 C 23.359375 8.777344 23.359375 8.664062 23.359375 8.554688 L 24.625 8.492188 C 24.804688 8.472656 24.953125 8.398438 25.070312 8.265625 C 25.191406 8.132812 25.246094 7.976562 25.242188 7.800781 C 25.261719 7.195312 25.273438 6.398438 25.234375 6.042969 C 25.21875 5.886719 25.144531 5.757812 25.015625 5.664062 C 24.636719 5.367188 23.742188 5.394531 23.246094 5.4375 C 23.234375 5.179688 23.191406 4.921875 23.117188 4.671875 C 22.992188 4.375 22.863281 4.066406 15.054688 4.105469 C 11.300781 4.125 7.535156 4.222656 7.503906 4.222656 C 7.203125 4.214844 6.914062 4.265625 6.632812 4.375 C 6.351562 4.484375 6.105469 4.644531 5.890625 4.855469 C 5.675781 5.0625 5.511719 5.304688 5.398438 5.582031 C 5.285156 5.855469 5.230469 6.144531 5.234375 6.441406 C 5.1875 8.015625 5.011719 22.019531 5.238281 23.320312 C 5.53125 25.015625 7.347656 24.867188 8.027344 24.8125 C 8.859375 24.746094 18.527344 24.820312 21.703125 24.847656 C 22.320312 24.851562 22.714844 24.855469 22.777344 24.855469 C 22.894531 24.851562 22.996094 24.808594 23.074219 24.726562 C 23.316406 24.476562 23.414062 23.792969 23.273438 20.75 C 23.265625 20.515625 23.257812 20.355469 23.257812 20.308594 C 23.257812 20.289062 23.257812 20.273438 23.253906 20.257812 L 23.257812 20.257812 C 23.257812 20.148438 23.265625 19.769531 23.273438 19.191406 C 23.277344 19.089844 23.277344 18.992188 23.28125 18.890625 L 24.625 18.828125 C 24.804688 18.808594 24.953125 18.734375 25.070312 18.601562 C 25.191406 18.46875 25.246094 18.3125 25.242188 18.136719 C 25.261719 17.53125 25.273438 16.734375 25.234375 16.378906 C 25.21875 16.222656 25.144531 16.09375 25.015625 16 C 24.65625 15.71875 23.835938 15.726562 23.328125 15.765625 C 23.328125 15.664062 23.332031 15.566406 23.332031 15.464844 Z M 5.910156 6.460938 C 5.902344 6.273438 5.925781 6.097656 5.984375 5.921875 C 6.042969 5.746094 6.132812 5.589844 6.253906 5.445312 C 6.371094 5.304688 6.511719 5.1875 6.675781 5.097656 C 6.839844 5.007812 7.011719 4.953125 7.195312 4.925781 C 7.460938 8.203125 7.558594 17.800781 7.515625 19.796875 C 6.789062 19.980469 6.226562 20.382812 5.820312 21.003906 C 5.761719 16.773438 5.867188 8.023438 5.910156 6.460938 Z M 22.59375 24.183594 C 22.414062 24.183594 22.109375 24.179688 21.710938 24.175781 C 18.039062 24.148438 13.523438 24.117188 10.679688 24.117188 C 9.242188 24.117188 8.234375 24.125 7.972656 24.144531 C 6.65625 24.25 6.054688 23.988281 5.910156 23.234375 C 5.9375 20.550781 7.859375 20.398438 7.929688 20.390625 C 8.117188 20.386719 8.308594 20.382812 8.503906 20.378906 C 8.5 20.6875 8.492188 21.242188 8.488281 21.738281 L 7.507812 21.730469 L 7.503906 21.730469 C 7.410156 21.730469 7.332031 21.761719 7.265625 21.828125 C 7.199219 21.890625 7.164062 21.96875 7.164062 22.0625 C 7.164062 22.15625 7.195312 22.234375 7.261719 22.300781 C 7.328125 22.367188 7.40625 22.398438 7.5 22.398438 L 8.496094 22.410156 C 8.5 22.535156 8.503906 22.636719 8.511719 22.695312 C 8.523438 22.851562 8.605469 22.960938 8.753906 23.027344 C 9.050781 23.152344 9.402344 22.914062 9.992188 22.484375 C 10.039062 22.449219 10.09375 22.410156 10.140625 22.375 L 10.21875 22.449219 C 10.472656 22.746094 10.773438 22.976562 11.128906 23.140625 C 11.164062 23.148438 11.199219 23.15625 11.238281 23.15625 C 11.34375 23.152344 11.433594 23.117188 11.511719 23.046875 C 11.644531 22.863281 11.722656 22.664062 11.738281 22.441406 C 16.554688 22.484375 19.46875 22.507812 20.421875 22.507812 C 20.609375 22.507812 20.722656 22.507812 20.753906 22.503906 C 20.847656 22.5 20.925781 22.464844 20.988281 22.394531 C 21.050781 22.328125 21.082031 22.246094 21.078125 22.152344 C 21.070312 22.0625 21.03125 21.984375 20.960938 21.925781 C 20.894531 21.863281 20.8125 21.832031 20.71875 21.835938 C 20.527344 21.847656 17.285156 21.824219 11.8125 21.769531 C 11.847656 21.230469 11.839844 20.660156 11.828125 20.316406 C 16.472656 20.25 21.597656 20.257812 22.585938 20.492188 C 22.585938 20.570312 22.59375 20.667969 22.597656 20.777344 C 22.699219 23.007812 22.660156 23.875 22.59375 24.183594 Z M 11.15625 20.328125 C 11.171875 20.996094 11.144531 21.664062 11.078125 22.328125 C 10.941406 22.210938 10.785156 22.058594 10.695312 21.972656 C 10.46875 21.75 10.382812 21.667969 10.253906 21.636719 C 10.066406 21.59375 9.953125 21.675781 9.585938 21.945312 C 9.484375 22.023438 9.316406 22.144531 9.171875 22.242188 C 9.164062 21.769531 9.171875 20.980469 9.183594 20.363281 C 9.816406 20.351562 10.476562 20.339844 11.15625 20.328125 Z M 22.597656 19.179688 C 22.589844 19.445312 22.585938 19.671875 22.585938 19.847656 C 20.457031 19.492188 13.007812 19.601562 8.195312 19.714844 C 8.242188 17.390625 8.117188 8.011719 7.875 4.882812 C 10.355469 4.820312 13.464844 4.773438 16.195312 4.773438 C 19.320312 4.773438 21.941406 4.835938 22.515625 5.015625 C 22.660156 5.644531 22.777344 8.710938 22.597656 19.179688 Z M 24.613281 13.078125 C 24.632812 13.347656 24.632812 13.925781 24.613281 14.6875 C 24.613281 14.703125 24.609375 14.71875 24.601562 14.730469 L 23.339844 14.792969 C 23.347656 14.171875 23.351562 13.574219 23.359375 13.011719 C 23.78125 12.957031 24.199219 12.976562 24.613281 13.078125 Z M 24.566406 9.632812 C 24.585938 9.90625 24.585938 10.484375 24.5625 11.246094 C 24.5625 11.261719 24.5625 11.273438 24.554688 11.289062 L 23.367188 11.347656 C 23.371094 10.707031 23.371094 10.113281 23.367188 9.566406 C 23.769531 9.515625 24.171875 9.535156 24.566406 9.632812 Z M 24.566406 6.167969 C 24.585938 6.441406 24.585938 7.019531 24.5625 7.78125 C 24.5625 7.796875 24.5625 7.8125 24.554688 7.824219 L 23.347656 7.882812 C 23.335938 7.171875 23.316406 6.582031 23.292969 6.105469 C 23.71875 6.046875 24.144531 6.070312 24.566406 6.167969 Z M 24.566406 16.503906 C 24.585938 16.777344 24.585938 17.355469 24.5625 18.117188 C 24.5625 18.132812 24.5625 18.144531 24.554688 18.160156 L 23.292969 18.222656 C 23.300781 17.605469 23.308594 17.011719 23.320312 16.441406 C 23.738281 16.382812 24.152344 16.40625 24.566406 16.503906 Z M 24.566406 16.503906 " fill-opacity="1" fill-rule="nonzero"/></g><path fill="#000000" d="M 11.117188 11.597656 C 11.304688 11.097656 11.507812 10.578125 11.707031 10.097656 C 12.394531 10.128906 12.933594 10.144531 13.296875 10.144531 C 13.382812 10.144531 13.457031 10.140625 13.527344 10.140625 C 13.734375 10.71875 13.898438 11.179688 13.925781 11.289062 C 13.9375 11.375 13.980469 11.445312 14.050781 11.5 C 14.117188 11.554688 14.199219 11.582031 14.285156 11.574219 C 14.375 11.566406 14.449219 11.53125 14.511719 11.46875 C 14.570312 11.40625 14.601562 11.328125 14.601562 11.242188 C 14.601562 11.1875 14.601562 11.113281 14.09375 9.71875 C 14.09375 9.707031 14.097656 9.699219 14.09375 9.691406 C 14.085938 9.679688 14.078125 9.664062 14.070312 9.652344 C 13.898438 9.175781 13.671875 8.5625 13.371094 7.75 C 13.363281 7.726562 13.355469 7.707031 13.34375 7.6875 C 13.214844 7.488281 13.035156 7.367188 12.796875 7.324219 C 12.5625 7.300781 12.359375 7.371094 12.199219 7.542969 C 11.820312 7.894531 10.871094 10.332031 10.480469 11.363281 C 10.449219 11.449219 10.449219 11.535156 10.488281 11.617188 C 10.527344 11.703125 10.59375 11.761719 10.679688 11.792969 C 10.769531 11.828125 10.855469 11.824219 10.941406 11.785156 C 11.027344 11.746094 11.085938 11.683594 11.117188 11.597656 Z M 12.664062 8.027344 C 12.691406 8.003906 12.707031 7.992188 12.710938 7.988281 C 12.726562 8 12.738281 8.011719 12.753906 8.023438 C 12.910156 8.453125 13.101562 8.972656 13.285156 9.476562 C 12.957031 9.472656 12.472656 9.457031 11.980469 9.4375 C 12.164062 8.949219 12.390625 8.476562 12.664062 8.027344 Z M 12.664062 8.027344 " fill-opacity="1" fill-rule="nonzero"/><path fill="#000000" d="M 15.1875 9.75 L 16.234375 9.75 C 16.328125 9.75 16.410156 9.714844 16.476562 9.648438 C 16.542969 9.585938 16.574219 9.507812 16.574219 9.414062 C 16.574219 9.320312 16.542969 9.242188 16.476562 9.175781 C 16.410156 9.113281 16.328125 9.078125 16.234375 9.078125 L 15.1875 9.078125 C 15.09375 9.078125 15.015625 9.113281 14.949219 9.175781 C 14.882812 9.242188 14.847656 9.320312 14.847656 9.414062 C 14.847656 9.507812 14.882812 9.585938 14.949219 9.648438 C 15.015625 9.714844 15.09375 9.75 15.1875 9.75 Z M 15.1875 9.75 " fill-opacity="1" fill-rule="nonzero"/><path fill="#000000" d="M 19.761719 10.984375 C 18.953125 10.980469 18.027344 10.949219 17.519531 10.902344 C 17.757812 10.582031 18.011719 10.277344 18.285156 9.988281 C 18.460938 9.816406 20 8.285156 19.910156 7.804688 C 19.863281 7.546875 19.816406 7.304688 17.210938 7.371094 C 17.117188 7.375 17.039062 7.410156 16.976562 7.476562 C 16.910156 7.542969 16.878906 7.621094 16.882812 7.714844 C 16.886719 7.808594 16.921875 7.882812 16.988281 7.949219 C 17.054688 8.011719 17.136719 8.042969 17.230469 8.039062 C 17.886719 8.023438 18.65625 8.035156 19.082031 8.074219 C 18.683594 8.578125 18.257812 9.058594 17.808594 9.515625 C 17.714844 9.605469 16.707031 10.707031 16.664062 11.085938 C 16.652344 11.1875 16.683594 11.28125 16.753906 11.359375 C 16.855469 11.476562 17 11.636719 19.753906 11.65625 L 19.757812 11.65625 C 19.851562 11.65625 19.933594 11.621094 20 11.558594 C 20.066406 11.492188 20.097656 11.414062 20.097656 11.320312 C 20.097656 11.230469 20.066406 11.148438 20 11.085938 C 19.933594 11.019531 19.855469 10.984375 19.761719 10.984375 Z M 19.761719 10.984375 " fill-opacity="1" fill-rule="nonzero"/><path fill="#000000" d="M 19.21875 14.121094 C 18.667969 14.242188 14.023438 14.332031 11.179688 14.359375 C 11.085938 14.363281 11.003906 14.394531 10.9375 14.460938 C 10.875 14.527344 10.839844 14.605469 10.839844 14.699219 C 10.839844 14.789062 10.875 14.867188 10.941406 14.933594 C 11.007812 15 11.089844 15.03125 11.183594 15.03125 C 19.378906 14.949219 19.515625 14.777344 19.640625 14.628906 C 19.753906 14.484375 19.753906 14.34375 19.636719 14.207031 C 19.519531 14.066406 19.382812 14.039062 19.21875 14.121094 Z M 19.21875 14.121094 " fill-opacity="1" fill-rule="nonzero"/><path fill="#000000" d="M 17.15625 16.226562 C 16.859375 16.265625 14.832031 16.273438 13.035156 16.269531 C 12.941406 16.265625 12.859375 16.300781 12.792969 16.363281 C 12.726562 16.429688 12.695312 16.507812 12.695312 16.601562 C 12.695312 16.695312 12.726562 16.773438 12.792969 16.839844 C 12.859375 16.902344 12.9375 16.9375 13.03125 16.9375 C 13.589844 16.941406 14.074219 16.941406 14.496094 16.941406 C 17.300781 16.941406 17.371094 16.882812 17.472656 16.804688 C 17.621094 16.6875 17.648438 16.546875 17.558594 16.382812 C 17.46875 16.21875 17.335938 16.167969 17.15625 16.226562 Z M 17.15625 16.226562 " fill-opacity="1" fill-rule="nonzero"/></svg>